P2
24 8
15
 0  0  0  0  0  0  0  0  0  0  0  0  0  0  0  0  0  0  0  0  0  0  0  0
 0  8  8  8  8  8  8  0  0 10  0  0  0  0 10  0  0  0  0  0  0  0 15  0
 0  8  0  0  0  0  8  0  0 10  0  0  0  0 10  0  0  0  0  0  0  0 15  0
 0  8  0  0  0  0  8  0  0 10  0  0  0  0 10  0  0  0  0  0  0  0 15  0
 0  8  0  0  0  0  8  0  0 10  0  0  0  0 10  0  0  15 0  0  0  0 15  0
 0  8  0  0  0  0  8  0  0 10  0  0  0  0 10  0  0  15 0  0  0  0 15  0
 0  8  8  8  8  8  8  0  0  0 10 10 10 10  0  0  0  0 15 15 15 15  0  0
 0  0  0  0  0  0  0  0  0  0  0  0  0  0  0  0  0  0  0  0  0  0  0  0
